<svg width="30" height="30" viewBox="0 0 30 30" fill="none" xmlns="http://www.w3.org/2000/svg">
<g id="smile icon">
<path id="icon" fill-rule="evenodd" clip-rule="evenodd" d="M1.25 15C1.25 22.5939 7.40608 28.75 15 28.75C22.5939 28.75 28.75 22.5939 28.75 15C28.75 7.40608 22.5939 1.25 15 1.25C7.40608 1.25 1.25 7.40608 1.25 15ZM26.25 15C26.25 21.2132 21.2132 26.25 15 26.25C8.7868 26.25 3.75 21.2132 3.75 15C3.75 8.7868 8.7868 3.75 15 3.75C21.2132 3.75 26.25 8.7868 26.25 15ZM15.0401 23.75C10.8432 23.75 8.50803 21.5395 8.50803 17.5V16.25H21.3947L21.4293 17.4644C21.5447 21.5181 19.2504 23.75 15.0401 23.75ZM18.8594 18.75C18.5658 20.4944 17.3862 21.25 15.0401 21.25C12.6953 21.25 11.4772 20.4878 11.121 18.75H18.8594ZM17.5 10H21.25V12.5H17.5V10ZM12.5 10H8.75V12.5H12.5V10Z" fill="white" fill-opacity="0.5"/>
</g>
</svg>
