<svg width="30" height="30" viewBox="0 0 30 30" fill="none" xmlns="http://www.w3.org/2000/svg">
<g id="media icon">
<path id="icon" fill-rule="evenodd" clip-rule="evenodd" d="M16.6789 8.17948L18.4602 9.93365L10.5624 17.9533C10.1661 18.3578 10.1661 19.0088 10.5624 19.4133C10.9385 19.7971 11.5667 19.7953 11.9387 19.4112L20.628 10.5841C21.8965 9.28961 21.8965 7.21059 20.628 5.91605C19.4177 4.68093 17.2762 4.70841 16.09 5.91841L6.60592 15.5461C4.46466 17.7304 4.46466 21.2378 6.60592 23.4221C8.68518 25.5431 12.257 25.5086 14.3038 23.4202L25.3651 12.1861L27.1465 13.9401L16.0873 25.1721C13.0699 28.2509 7.88784 28.301 4.82066 25.1722C1.72642 22.0158 1.72642 16.9524 4.82279 13.7938L14.3069 4.16614C16.4612 1.96856 20.2128 1.92042 22.4136 4.16632C24.6346 6.4329 24.6346 10.0673 22.4116 12.3359L13.7276 21.1576C12.3842 22.545 10.1369 22.5512 8.77666 21.1629C7.42804 19.7864 7.42804 17.5802 8.77891 16.2014L16.6789 8.17948Z" fill="white" fill-opacity="0.5"/>
</g>
</svg>
